<?xml version="1.0" standalone="no"?>
   <!DOCTYPE svg PUBLIC "-//W3C//DTD SVG 1.1//EN" 
   "http://www.w3.org/Graphics/SVG/1.1/DTD/svg11.dtd"><svg id="svg" version="1.1" width="924" height="981" xmlns="http://www.w3.org/2000/svg"><path d="M378.689 86.829 C 373.293 90.216,367.338 96.364,365.457 100.493 C 363.576 104.622,360.411 108.000,358.423 108.000 C 352.066 108.000,320.073 131.346,301.957 149.205 C 283.928 166.978,262.614 194.903,253.721 212.403 C 248.006 223.648,249.104 223.726,213.127 209.518 C 187.146 199.258,172.883 199.915,161.633 211.891 C 152.720 221.379,152.710 238.468,161.609 252.868 C 170.123 266.643,169.809 275.304,160.645 279.480 C 156.599 281.323,151.111 287.421,148.450 293.030 C 137.670 315.746,154.910 336.718,202.593 358.895 C 229.788 371.542,234.044 374.505,234.344 381.000 C 235.172 398.905,232.133 414.000,227.700 414.000 C 225.948 414.000,214.836 418.853,203.007 424.784 C 153.027 449.844,124.040 478.565,100.350 526.500 C 80.998 565.657,76.874 584.618,76.861 634.500 C 76.847 684.244,82.307 708.043,104.028 752.917 C 134.621 816.121,200.283 864.547,285.237 886.561 C 335.953 899.703,454.504 904.354,509.875 895.374 C 623.936 876.876,719.262 823.734,771.945 749.275 C 805.927 701.247,824.166 658.798,837.371 597.000 C 843.078 570.294,844.133 555.911,844.301 502.500 C 844.490 442.549,844.099 438.065,836.217 409.857 C 825.865 372.813,812.777 347.954,795.720 332.941 C 760.230 301.701,732.293 306.149,681.586 351.113 C 662.600 367.949,641.836 379.692,625.790 382.668 C 614.457 384.770,614.153 384.610,616.342 377.670 C 617.585 373.727,619.265 353.625,620.076 333.000 C 623.604 243.172,590.797 171.428,522.000 118.524 C 488.189 92.524,466.074 84.669,420.000 82.295 C 391.763 80.841,387.484 81.311,378.689 86.829 M388.849 102.009 C 382.882 108.613,378.000 115.363,378.000 117.009 C 378.000 118.654,376.650 120.000,375.000 120.000 C 366.139 120.000,376.194 100.250,388.500 93.482 C 399.642 87.355,399.748 89.945,388.849 102.009 M463.052 99.080 C 489.623 107.287,522.764 130.097,549.665 158.692 C 585.458 196.741,602.611 235.936,609.041 294.371 C 612.945 329.853,611.150 353.576,602.539 380.294 C 592.135 412.574,568.951 437.124,524.661 462.760 C 496.269 479.195,485.253 499.944,491.871 524.522 C 496.642 542.239,500.997 539.968,501.020 519.750 C 501.033 507.893,502.813 499.811,506.711 493.897 L 512.383 485.294 517.583 496.251 C 520.442 502.277,525.224 508.514,528.209 510.112 C 536.771 514.694,538.584 507.616,531.353 497.836 C 521.721 484.808,523.126 476.599,536.273 469.077 C 563.847 453.301,585.733 434.223,597.586 415.632 C 609.002 397.725,610.579 396.445,623.619 394.502 C 644.744 391.355,665.565 380.115,690.183 358.568 C 726.165 327.075,750.593 317.846,770.399 328.259 C 784.019 335.421,803.279 357.586,811.462 375.519 C 826.972 409.508,834.611 447.552,834.849 492.000 C 835.109 540.595,829.734 586.958,820.093 619.279 C 816.192 632.357,813.000 645.253,813.000 647.937 C 813.000 656.446,789.251 702.446,769.557 732.083 C 728.083 794.496,665.754 839.394,581.720 867.391 C 549.962 877.971,539.704 880.012,511.818 881.299 C 430.073 885.070,385.452 861.152,370.384 805.487 C 360.419 768.672,370.430 733.262,397.902 708.154 C 416.461 691.193,438.121 680.155,462.750 675.109 C 486.304 670.283,485.196 664.970,460.957 666.514 C 435.319 668.146,406.723 682.329,385.412 703.983 C 364.708 725.021,356.292 745.898,355.978 777.000 C 355.426 831.523,384.800 871.840,434.193 884.355 L 454.500 889.500 432.000 890.455 C 402.015 891.728,319.707 883.179,288.317 875.531 C 226.921 860.571,175.854 830.771,139.952 788.950 C 120.349 766.115,110.269 747.914,98.440 714.000 C 88.623 685.854,88.502 684.848,88.622 633.000 C 88.739 582.855,89.124 579.502,97.188 558.263 C 118.478 502.187,150.065 465.860,201.750 438.008 C 225.588 425.162,227.385 424.938,221.722 435.519 C 216.615 445.062,222.983 448.914,230.509 440.835 C 238.743 431.998,246.000 410.040,246.000 393.966 C 246.000 386.835,246.512 381.000,247.137 381.000 C 247.763 381.000,256.092 384.579,265.645 388.952 C 287.195 398.818,315.843 399.842,346.500 391.840 C 381.661 382.664,387.000 378.358,387.000 359.182 C 387.000 351.452,382.949 345.969,363.356 327.177 C 350.351 314.705,336.920 300.337,333.507 295.250 C 327.403 286.148,319.913 261.506,316.436 239.083 C 313.744 221.723,305.250 214.876,289.143 217.084 C 281.917 218.074,272.511 219.761,268.242 220.833 L 260.480 222.781 266.630 210.725 C 276.565 191.250,306.634 155.475,324.213 142.213 C 355.311 118.752,363.000 115.220,363.000 124.394 C 363.000 126.811,365.609 130.185,368.797 131.891 C 371.985 133.598,375.456 137.710,376.509 141.030 C 378.674 147.849,392.537 156.000,401.971 156.000 C 405.418 156.000,413.868 158.871,420.747 162.381 C 439.574 171.986,460.823 171.538,476.453 161.207 C 483.354 156.647,489.000 150.909,489.000 148.457 C 489.000 142.289,485.650 142.835,470.556 151.464 C 454.813 160.464,447.933 160.765,429.556 153.258 C 421.825 150.100,410.904 146.716,405.286 145.740 C 392.103 143.448,387.000 139.038,387.000 129.935 C 387.000 119.158,391.825 111.889,405.606 101.906 C 420.603 91.042,434.772 90.345,463.052 99.080 M211.014 220.884 C 231.881 230.160,238.604 231.739,256.500 231.568 C 268.050 231.458,281.886 230.030,287.246 228.394 C 300.664 224.301,304.892 229.367,307.497 252.659 C 310.868 282.808,323.211 304.960,351.052 330.825 C 371.160 349.506,375.000 354.581,375.000 362.479 C 375.000 370.009,373.505 372.261,367.504 373.767 C 356.542 376.518,321.137 366.945,294.330 353.981 C 258.950 336.872,243.895 320.045,220.578 271.550 C 201.352 231.563,193.682 222.000,180.832 222.000 C 171.718 222.000,172.131 227.438,181.516 231.006 C 185.650 232.578,191.213 238.438,193.879 244.028 C 198.577 253.879,198.474 254.623,190.552 268.140 C 184.392 278.651,182.659 285.034,183.518 294.044 C 184.724 306.685,181.835 310.342,179.052 299.698 C 176.919 291.543,171.000 295.172,171.000 304.634 C 171.000 314.705,185.823 323.643,228.000 339.007 C 246.975 345.919,269.925 355.390,279.000 360.055 C 288.075 364.720,305.527 371.910,317.782 376.032 L 340.063 383.529 328.734 385.654 C 307.106 389.712,282.264 385.214,256.608 372.596 C 243.349 366.074,219.387 354.394,203.360 346.640 C 173.196 332.047,156.000 317.127,156.000 305.549 C 156.000 302.095,161.359 294.408,168.000 288.338 C 182.138 275.414,182.828 269.381,172.500 249.000 C 168.375 240.860,165.000 231.664,165.000 228.565 C 165.000 221.399,174.655 212.773,185.514 210.237 C 186.072 210.107,197.547 214.898,211.014 220.884 M393.000 263.015 C 385.237 266.005,372.000 279.902,372.000 285.061 C 372.000 294.210,375.643 293.746,385.451 283.346 C 395.733 272.444,402.864 270.788,415.244 276.429 C 422.531 279.750,438.000 299.768,438.000 305.879 C 438.000 310.682,451.845 312.829,458.805 309.105 C 466.626 304.919,464.204 300.000,454.323 300.000 C 445.460 300.000,444.783 295.397,453.000 291.000 C 456.300 289.234,459.000 285.811,459.000 283.394 C 459.000 278.432,451.334 277.414,448.500 282.000 C 445.929 286.161,438.000 285.773,438.000 281.486 C 438.000 279.554,440.263 275.472,443.029 272.415 C 447.041 267.982,447.301 266.114,444.316 263.179 C 441.353 260.265,439.456 260.867,435.200 266.072 C 430.482 271.842,429.117 272.147,424.010 268.570 C 417.120 263.744,399.366 260.564,393.000 263.015 M232.475 318.364 C 238.258 326.414,242.234 333.000,241.309 333.000 C 240.385 333.000,232.320 329.543,223.388 325.317 C 195.731 312.233,186.920 295.427,198.173 277.220 L 204.950 266.255 213.455 284.992 C 218.133 295.297,226.692 310.315,232.475 318.364 M273.000 327.052 C 273.000 336.727,309.867 354.000,330.517 354.000 C 348.549 354.000,343.397 347.637,320.803 342.002 C 310.186 339.355,295.088 334.297,287.250 330.763 C 279.413 327.229,273.000 325.559,273.000 327.052 M675.000 434.460 C 675.000 439.728,697.139 462.411,709.002 469.298 C 725.505 478.878,744.000 482.458,744.000 476.072 C 744.000 473.431,740.267 470.657,735.224 469.549 C 724.609 467.218,694.281 446.000,689.922 437.855 C 686.888 432.186,675.000 429.481,675.000 434.460 M681.000 466.282 C 681.000 471.218,701.494 489.000,707.184 489.000 C 714.576 489.000,710.869 480.899,699.176 471.502 C 686.303 461.157,681.000 459.634,681.000 466.282 M721.500 585.515 C 718.200 587.348,705.179 598.796,692.564 610.954 C 679.949 623.112,663.380 635.823,655.744 639.201 C 637.358 647.334,605.607 653.883,584.250 653.948 C 566.836 654.000,561.304 657.774,573.750 661.109 C 585.977 664.386,616.441 663.078,633.920 658.525 C 661.532 651.333,679.171 640.580,703.259 616.257 C 715.682 603.712,727.568 594.054,729.673 594.794 C 732.262 595.704,733.228 601.131,732.660 611.570 C 731.672 629.722,736.078 631.675,750.547 619.500 C 763.091 608.945,770.382 609.789,775.653 622.404 C 784.160 642.763,779.543 677.129,763.752 711.000 C 754.066 731.773,753.596 738.102,762.324 730.215 C 771.446 721.972,782.358 699.018,787.477 677.307 C 795.662 642.592,791.614 616.336,776.328 605.004 C 769.321 599.809,766.648 599.408,757.578 602.192 C 748.841 604.874,747.000 604.681,747.000 601.083 C 747.000 596.460,733.913 581.937,729.886 582.091 C 728.574 582.141,724.800 583.682,721.500 585.515 M106.227 655.520 C 103.428 666.670,107.318 683.153,117.798 704.561 C 126.589 722.516,132.871 729.129,137.111 724.889 C 138.130 723.870,134.022 712.506,127.982 699.635 C 120.211 683.075,117.000 672.106,117.000 662.117 C 117.000 651.649,115.852 648.000,112.557 648.000 C 110.114 648.000,107.265 651.384,106.227 655.520 M132.000 684.149 C 132.000 697.478,147.607 716.680,150.757 707.228 C 152.179 702.964,138.501 678.000,134.744 678.000 C 133.235 678.000,132.000 680.767,132.000 684.149 M637.500 704.171 C 621.032 708.219,619.729 717.754,636.000 715.152 C 647.416 713.326,652.464 716.887,645.000 721.500 C 643.350 722.520,642.000 725.974,642.000 729.177 C 642.000 734.337,644.195 735.000,661.286 735.000 C 681.673 735.000,691.203 739.959,689.374 749.614 C 688.865 752.301,680.697 759.077,671.224 764.671 C 646.039 779.543,649.057 790.235,674.742 777.132 C 691.436 768.615,702.891 754.013,700.517 744.275 C 697.418 731.561,688.876 725.300,672.482 723.724 C 661.770 722.695,657.894 721.161,658.964 718.373 C 660.471 714.446,649.958 701.697,645.750 702.348 C 644.513 702.539,640.800 703.360,637.500 704.171 " stroke="none" fill="black" fill-rule="evenodd"/></svg>